<?xml version="1.0" encoding="UTF-8" standalone="no"?>
<svg width="103px" height="30px" viewBox="0 0 103 30" version="1.1" xmlns="http://www.w3.org/2000/svg" xmlns:xlink="http://www.w3.org/1999/xlink">
    <!-- Generator: sketchtool 3.8.3 (29802) - http://www.bohemiancoding.com/sketch -->
    <title>1FCDEDB3-1931-4D07-B75F-C35389DB645F</title>
    <desc>Created with sketchtool.</desc>
    <defs></defs>
    <g id="Onboarding" stroke="none" stroke-width="1" fill="none" fill-rule="evenodd">
        <g id="m.Home(Landingspage)" transform="translate(-80.000000, -100.000000)" fill="#DB352A">
            <g id="#TEDxAms2016" transform="translate(52.000000, 64.000000)">
                <g id="TEDxAmsterdam_logo-Copy" transform="translate(28.000000, 25.000000)">
                    <g id="TEDx" transform="translate(0.000000, 11.000000)">
                        <polyline id="Fill-35" points="9.11382683 8.0275766 0.857025467 8.0275766 0.857025467 0.472980501 26.4396333 0.472980501 26.4396333 8.0275766 18.1856163 8.0275766 18.1856163 29.9481894 9.11382683 29.9481894 9.11382683 8.0275766"></polyline>
                        <polyline id="Fill-36" points="27.8496435 0.472980501 52.6840883 0.472980501 52.6840883 8.0275766 36.9272801 8.0275766 36.9272801 11.7005571 52.6840883 11.7005571 52.6840883 18.7206128 36.9272801 18.7206128 36.9272801 22.3938719 52.6882649 22.3938719 52.6882649 29.9481894 27.8496435 29.9481894 27.8496435 0.472980501"></polyline>
                        <path d="M63.2889576,22.3938719 L66.8390424,22.3938719 C72.4938404,22.3938719 73.3205229,17.8100279 73.3205229,15.0412256 C73.3205229,13.1871866 72.7397012,8.0275766 66.1780306,8.0275766 L63.2889576,8.0275766 L63.2889576,22.3938719 L63.2889576,22.3938719 Z M54.2118778,0.472980501 L69.1083124,0.472980501 C78.927708,0.472980501 82.3981596,7.73871866 82.3981596,15.1671309 C82.3981596,24.210585 77.611253,29.9481894 67.3357759,29.9481894 L54.2118778,29.9481894 L54.2118778,0.472980501 L54.2118778,0.472980501 Z" id="Fill-37"></path>
                        <polyline id="Fill-38" points="95.4415891 18.5896936 92.6725229 13.9958217 89.9722309 18.5896936 83.3211817 18.5896936 89.6353209 9.30111421 83.555348 0.416155989 90.2086248 0.416155989 92.6725229 4.80807799 95.2071443 0.416155989 101.858472 0.416155989 95.7804482 9.30111421 102.094309 18.5896936 95.4415891 18.5896936"></polyline>
                    </g>
                </g>
            </g>
        </g>
    </g>
</svg>
