<?xml version="1.0" encoding="UTF-8" standalone="no"?>
<svg width="176px" height="28px" viewBox="0 0 176 28" version="1.1" xmlns="http://www.w3.org/2000/svg" xmlns:xlink="http://www.w3.org/1999/xlink">
    <!-- Generator: sketchtool 3.8.1 (29687) - http://www.bohemiancoding.com/sketch -->
    <title>240D5FD9-D8CE-4814-9431-25D239BFC297</title>
    <desc>Created with sketchtool.</desc>
    <defs></defs>
    <g id="Symbols" stroke="none" stroke-width="1" fill="none" fill-rule="evenodd">
        <g id="m.Topbar" transform="translate(-99.000000, -24.000000)">
            <g id="Topbar-white">
                <g id="Logo" transform="translate(99.000000, 18.000000)">
                    <g id="TEDxAmsterdam_logo">
                        <polyline id="Fill-3" fill="#DB352A" points="2.14062246 30.4838254 0.956722516 28.7625162 2.08492425 28.7625162 2.71856965 29.7110121 3.345331 28.7625162 4.43879958 28.7625162 3.25489964 30.4626741 4.58492916 32.3948654 3.45688389 32.3948654 2.70480155 31.2496936 1.95256276 32.3948654 0.845326089 32.3948654 2.14062246 30.4838254"></polyline>
                        <path d="M5.75443518,30.9966667 L9.2712454,30.9966667 L9.2712454,31.7484865 L5.75443518,31.7484865 L5.75443518,30.9966667 Z M5.75443518,29.4931848 L9.2712454,29.4931848 L9.2712454,30.2448468 L5.75443518,30.2448468 L5.75443518,29.4931848 Z" id="Fill-4" fill="#0A0B09"></path>
                        <path d="M10.9770814,28.7625162 L11.9658812,28.7625162 L11.9658812,32.3948654 L10.9770814,32.3948654 L10.9770814,28.7625162 Z M10.9770814,27.3783658 L11.9658812,27.3783658 L11.9658812,28.2004271 L10.9770814,28.2004271 L10.9770814,27.3783658 Z" id="Fill-5" fill="#0A0B09"></path>
                        <path d="M12.6064106,28.7625162 L13.5465526,28.7625162 L13.5465526,29.2682544 L13.5675177,29.2682544 C13.8181597,28.8608542 14.2499773,28.6641783 14.6677139,28.6641783 C15.7192523,28.6641783 15.9839753,29.2613092 15.9839753,30.1605571 L15.9839753,32.3948654 L14.9950191,32.3948654 L14.9950191,30.3431848 C14.9950191,29.7460539 14.820884,29.4510399 14.3613737,29.4510399 C13.8252002,29.4510399 13.5953668,29.7531569 13.5953668,30.4909285 L13.5953668,32.3948654 L12.6064106,32.3948654 L12.6064106,28.7625162" id="Fill-6" fill="#0A0B09"></path>
                        <path d="M18.3024916,29.4158403 C17.6549217,29.4158403 17.4319724,29.9779294 17.4319724,30.5752182 C17.4319724,31.1442526 17.6896548,31.7413835 18.3024916,31.7413835 C18.9571021,31.7413835 19.1522023,31.1652461 19.1522023,30.5681151 C19.1522023,29.9779294 18.9431776,29.4158403 18.3024916,29.4158403 L18.3024916,29.4158403 Z M19.1659704,31.9311142 L19.1522023,31.9311142 C18.922369,32.3244661 18.5184005,32.4932033 18.0587337,32.4932033 C16.9724621,32.4932033 16.4431726,31.5516527 16.4431726,30.5469638 C16.4431726,29.5703714 16.9793462,28.6641783 18.0379251,28.6641783 C18.4627022,28.6641783 18.8805953,28.8468059 19.1102722,29.2051161 L19.1033881,29.2051161 L19.1173127,29.2051161 L19.1173127,27.3783658 L20.1061124,27.3783658 L20.1061124,32.3948654 L19.1659704,32.3948654 L19.1659704,31.9311142 L19.1659704,31.9311142 Z" id="Fill-7" fill="#0A0B09"></path>
                        <path d="M23.1350939,30.1886537 C23.0445061,29.6829155 22.8287538,29.4158403 22.348122,29.4158403 C21.7213606,29.4158403 21.5403414,29.907688 21.5264169,30.1886537 L23.1350939,30.1886537 L23.1350939,30.1886537 Z M21.5264169,30.8209842 C21.554266,31.4533148 21.8607626,31.7413835 22.4108607,31.7413835 C22.8077887,31.7413835 23.1282099,31.4954596 23.1907921,31.2706871 L24.0613114,31.2706871 C23.7826639,32.1277902 23.1907921,32.4932033 22.3761275,32.4932033 C21.2408853,32.4932033 20.5376171,31.7063417 20.5376171,30.5821634 C20.5376171,29.4931848 21.282659,28.6641783 22.3761275,28.6641783 C23.6016447,28.6641783 24.1936729,29.703909 24.1238937,30.8209842 L21.5264169,30.8209842 L21.5264169,30.8209842 Z" id="Fill-8" fill="#0A0B09"></path>
                        <path d="M27.243463,30.5892665 C27.243463,30.0131291 27.0136296,29.4158403 26.3799842,29.4158403 C25.7324143,29.4158403 25.5233895,29.9990808 25.5233895,30.5892665 C25.5233895,31.1792943 25.7463388,31.7413835 26.3868683,31.7413835 C27.0345947,31.7413835 27.243463,31.1792943 27.243463,30.5892665 L27.243463,30.5892665 Z M24.5693229,28.7625162 L25.509465,28.7625162 L25.509465,29.2262674 L25.5233895,29.2262674 C25.7601069,28.8398607 26.1501509,28.6641783 26.595893,28.6641783 C27.7239383,28.6641783 28.2324192,29.5845775 28.2324192,30.6172052 C28.2324192,31.5868524 27.7031297,32.4932033 26.6515912,32.4932033 C26.2197736,32.4932033 25.8089211,32.3034726 25.5722037,31.9451625 L25.5582791,31.9451625 L25.5582791,33.6734169 L24.5693229,33.6734169 L24.5693229,28.7625162 L24.5693229,28.7625162 Z" id="Fill-9" fill="#0A0B09"></path>
                        <path d="M31.1080741,30.1886537 C31.0174863,29.6829155 30.8017339,29.4158403 30.3211022,29.4158403 C29.6943408,29.4158403 29.5133216,29.907688 29.4993971,30.1886537 L31.1080741,30.1886537 L31.1080741,30.1886537 Z M29.4993971,30.8209842 C29.5272462,31.4533148 29.8337428,31.7413835 30.3838409,31.7413835 C30.7807689,31.7413835 31.1011901,31.4954596 31.1637723,31.2706871 L32.0342916,31.2706871 C31.7556441,32.1277902 31.1637723,32.4932033 30.3489513,32.4932033 C29.2138655,32.4932033 28.5105973,31.7063417 28.5105973,30.5821634 C28.5105973,29.4931848 29.2556392,28.6641783 30.3489513,28.6641783 C31.5746249,28.6641783 32.1666531,29.703909 32.0968739,30.8209842 L29.4993971,30.8209842 L29.4993971,30.8209842 Z" id="Fill-10" fill="#0A0B09"></path>
                        <path d="M32.5423031,28.7625162 L33.4824451,28.7625162 L33.4824451,29.2682544 L33.5034102,29.2682544 C33.7540522,28.8608542 34.1857133,28.6641783 34.6036064,28.6641783 C35.6551448,28.6641783 35.9197113,29.2613092 35.9197113,30.1605571 L35.9197113,32.3948654 L34.9309116,32.3948654 L34.9309116,30.3431848 C34.9309116,29.7460539 34.7567765,29.4510399 34.2972662,29.4510399 C33.7610927,29.4510399 33.5312593,29.7531569 33.5312593,30.4909285 L33.5312593,32.3948654 L32.5423031,32.3948654 L32.5423031,28.7625162" id="Fill-11" fill="#0A0B09"></path>
                        <path d="M38.2383842,29.4158403 C37.5908142,29.4158403 37.3678649,29.9779294 37.3678649,30.5752182 C37.3678649,31.1442526 37.6255474,31.7413835 38.2383842,31.7413835 C38.8929946,31.7413835 39.0879384,31.1652461 39.0879384,30.5681151 C39.0879384,29.9779294 38.8790701,29.4158403 38.2383842,29.4158403 L38.2383842,29.4158403 Z M39.1018629,31.9311142 L39.0879384,31.9311142 C38.8582615,32.3244661 38.454293,32.4932033 37.9946262,32.4932033 C36.9083546,32.4932033 36.3790651,31.5516527 36.3790651,30.5469638 C36.3790651,29.5703714 36.9152387,28.6641783 37.9738176,28.6641783 C38.3985947,28.6641783 38.8164878,28.8468059 39.0461647,29.2051161 L39.0392807,29.2051161 L39.0532052,29.2051161 L39.0532052,27.3783658 L40.0420049,27.3783658 L40.0420049,32.3948654 L39.1018629,32.3948654 L39.1018629,31.9311142 L39.1018629,31.9311142 Z" id="Fill-12" fill="#0A0B09"></path>
                        <path d="M43.0709864,30.1886537 C42.9803986,29.6829155 42.7644898,29.4158403 42.2840145,29.4158403 C41.6572531,29.4158403 41.4762339,29.907688 41.4623094,30.1886537 L43.0709864,30.1886537 L43.0709864,30.1886537 Z M41.4623094,30.8209842 C41.4901585,31.4533148 41.7964987,31.7413835 42.3467532,31.7413835 C42.7436812,31.7413835 43.0641024,31.4954596 43.1266846,31.2706871 L43.9972039,31.2706871 C43.7185564,32.1277902 43.1266846,32.4932033 42.3118636,32.4932033 C41.1767778,32.4932033 40.4735096,31.7063417 40.4735096,30.5821634 C40.4735096,29.4931848 41.2185515,28.6641783 42.3118636,28.6641783 C43.5375372,28.6641783 44.1295654,29.703909 44.0597862,30.8209842 L41.4623094,30.8209842 L41.4623094,30.8209842 Z" id="Fill-13" fill="#0A0B09"></path>
                        <path d="M44.5052154,28.7625162 L45.4453575,28.7625162 L45.4453575,29.2682544 L45.4663225,29.2682544 C45.7169645,28.8608542 46.1486256,28.6641783 46.5665187,28.6641783 C47.6180571,28.6641783 47.8826237,29.2613092 47.8826237,30.1605571 L47.8826237,32.3948654 L46.8938239,32.3948654 L46.8938239,30.3431848 C46.8938239,29.7460539 46.7196888,29.4510399 46.2601785,29.4510399 C45.724005,29.4510399 45.4941716,29.7531569 45.4941716,30.4909285 L45.4941716,32.3948654 L44.5052154,32.3948654 L44.5052154,28.7625162" id="Fill-14" fill="#0A0B09"></path>
                        <path d="M49.7486703,28.7625162 L50.4729035,28.7625162 L50.4729035,29.4298886 L49.7486703,29.4298886 L49.7486703,31.2285422 C49.7486703,31.5658589 49.8322176,31.6499907 50.1665633,31.6499907 C50.2709192,31.6499907 50.3683911,31.6430455 50.4729035,31.622052 L50.4729035,32.4018106 C50.3058088,32.4299071 50.0899,32.4370102 49.8949563,32.4370102 C49.2890035,32.4370102 48.7597141,32.2965274 48.7597141,31.5728041 L48.7597141,29.4298886 L48.1609583,29.4298886 L48.1609583,28.7625162 L48.7597141,28.7625162 L48.7597141,27.6735376 L49.7486703,27.6735376 L49.7486703,28.7625162" id="Fill-15" fill="#0A0B09"></path>
                        <polygon id="Fill-16" fill="#0A0B09" points="50.8347854 27.3783658 51.8235852 27.3783658 51.8235852 32.3948654 50.8347854 32.3948654"></polygon>
                        <path d="M54.2400428,32.8515135 C54.0241339,33.4345961 53.6829042,33.6734169 53.0004446,33.6734169 C52.7984603,33.6734169 52.5964761,33.6593686 52.3946483,33.6382173 L52.3946483,32.8163138 C52.5825515,32.8303621 52.7774953,32.8584587 52.9725955,32.8515135 C53.3138253,32.8163138 53.4252217,32.4580037 53.3138253,32.169935 L52.046378,28.7625162 L53.104957,28.7625162 L53.9196216,31.2496936 L53.9335461,31.2496936 L54.7205181,28.7625162 L55.7442074,28.7625162 L54.2400428,32.8515135" id="Fill-17" fill="#0A0B09"></path>
                        <path d="M59.4834976,31.7413835 C60.1589166,31.7413835 60.3609009,31.1583008 60.3609009,30.5821634 C60.3609009,29.9990808 60.1589166,29.4158403 59.4834976,29.4158403 C58.8149626,29.4158403 58.6129783,29.9990808 58.6129783,30.5821634 C58.6129783,31.1583008 58.8149626,31.7413835 59.4834976,31.7413835 L59.4834976,31.7413835 Z M59.4834976,28.6641783 C60.6185834,28.6641783 61.3498571,29.4229434 61.3498571,30.5821634 C61.3498571,31.7342804 60.6185834,32.4932033 59.4834976,32.4932033 C58.3552959,32.4932033 57.6241786,31.7342804 57.6241786,30.5821634 C57.6241786,29.4229434 58.3552959,28.6641783 59.4834976,28.6641783 L59.4834976,28.6641783 Z" id="Fill-18" fill="#0A0B09"></path>
                        <path d="M61.7115826,28.7625162 L62.6517246,28.7625162 L62.6517246,29.4369916 L62.6656492,29.4369916 C62.8466683,28.9803435 63.3341842,28.6641783 63.8146595,28.6641783 C63.8842823,28.6641783 63.9678296,28.6782266 64.0304118,28.6992201 L64.0304118,29.6265645 C63.9399805,29.605571 63.7936944,29.5915227 63.6752575,29.5915227 C62.9510243,29.5915227 62.7003823,30.1184123 62.7003823,30.7578459 L62.7003823,32.3948654 L61.7115826,32.3948654 L61.7115826,28.7625162" id="Fill-19" fill="#0A0B09"></path>
                        <path d="M66.8018673,30.5330734 C66.8018673,29.9427298 66.5998831,29.4158403 65.9591972,29.4158403 C65.402215,29.4158403 65.1584571,29.907688 65.1584571,30.4486258 C65.1584571,30.9685701 65.3534009,31.5376045 65.9591972,31.5376045 C66.5233762,31.5376045 66.8018673,31.0528598 66.8018673,30.5330734 L66.8018673,30.5330734 Z M67.7420093,32.1629898 C67.7420093,32.7601207 67.533141,33.7717549 65.8756498,33.7717549 C65.1653412,33.7717549 64.336752,33.4345961 64.2879378,32.6055896 L65.2698535,32.6055896 C65.3604414,32.977948 65.659741,33.1045404 66.0080113,33.1045404 C66.5582659,33.1045404 66.8089078,32.7249211 66.8018673,32.2051346 L66.8018673,31.7273352 L66.7879428,31.7273352 C66.572034,32.1067967 66.1403728,32.2894243 65.7085552,32.2894243 C64.6291676,32.2894243 64.1695009,31.4604178 64.1695009,30.4626741 C64.1695009,29.5212813 64.7058309,28.6641783 65.7155957,28.6641783 C66.1890305,28.6641783 66.5512254,28.8258124 66.7879428,29.2472609 L66.8018673,29.2472609 L66.8018673,28.7625162 L67.7420093,28.7625162 L67.7420093,32.1629898 L67.7420093,32.1629898 Z" id="Fill-20" fill="#0A0B09"></path>
                        <path d="M70.4993838,30.6172052 C70.3322892,30.7647911 69.9840189,30.7718942 69.6776787,30.8280873 C69.3711821,30.8913835 69.092691,30.9966667 69.092691,31.3620799 C69.092691,31.7342804 69.3782226,31.8256732 69.6984873,31.8256732 C70.4715347,31.8256732 70.4993838,31.2075487 70.4993838,30.9897214 L70.4993838,30.6172052 L70.4993838,30.6172052 Z M68.2152877,29.8795915 C68.2709859,28.9451439 69.0995751,28.6641783 69.9073556,28.6641783 C70.6247048,28.6641783 71.4881836,28.8258124 71.4881836,29.6969638 L71.4881836,31.5868524 C71.4881836,31.9170659 71.5230732,32.2472795 71.613661,32.3948654 L70.6107802,32.3948654 C70.5758906,32.2824791 70.548198,32.1629898 70.5411575,32.0435005 C70.2277768,32.373714 69.7681101,32.4932033 69.3294084,32.4932033 C68.6469489,32.4932033 68.1037348,32.1489415 68.1037348,31.4042247 C68.1037348,30.5821634 68.7165716,30.3854875 69.3294084,30.3010399 C69.9353612,30.209805 70.4993838,30.2309564 70.4993838,29.8233983 C70.4993838,29.3948468 70.2068117,29.3315506 69.8586979,29.3315506 C69.4825785,29.3315506 69.2388206,29.4860817 69.2040874,29.8795915 L68.2152877,29.8795915 L68.2152877,29.8795915 Z" id="Fill-21" fill="#0A0B09"></path>
                        <path d="M72.114632,28.7625162 L73.054774,28.7625162 L73.054774,29.2682544 L73.0757391,29.2682544 C73.326381,28.8608542 73.7581987,28.6641783 74.1760917,28.6641783 C75.2274737,28.6641783 75.4921967,29.2613092 75.4921967,30.1605571 L75.4921967,32.3948654 L74.5032405,32.3948654 L74.5032405,30.3431848 C74.5032405,29.7460539 74.3292618,29.4510399 73.8695951,29.4510399 C73.3334216,29.4510399 73.1035882,29.7531569 73.1035882,30.4909285 L73.1035882,32.3948654 L72.114632,32.3948654 L72.114632,28.7625162" id="Fill-22" fill="#0A0B09"></path>
                        <path d="M75.9931677,28.7625162 L76.9821239,28.7625162 L76.9821239,32.3948654 L75.9931677,32.3948654 L75.9931677,28.7625162 Z M75.9931677,27.3783658 L76.9821239,27.3783658 L76.9821239,28.2004271 L75.9931677,28.2004271 L75.9931677,27.3783658 Z" id="Fill-23" fill="#0A0B09"></path>
                        <polyline id="Fill-24" fill="#0A0B09" points="77.399704 31.6430455 79.2731041 29.5143361 77.539106 29.5143361 77.539106 28.7625162 80.5752845 28.7625162 80.5752845 29.5143361 78.7020409 31.6430455 80.707646 31.6430455 80.707646 32.3948654 77.399704 32.3948654 77.399704 31.6430455"></polyline>
                        <path d="M83.5207186,30.1886537 C83.4302873,29.6829155 83.2143785,29.4158403 82.7339031,29.4158403 C82.1071418,29.4158403 81.9261226,29.907688 81.912198,30.1886537 L83.5207186,30.1886537 L83.5207186,30.1886537 Z M81.912198,30.8209842 C81.9400472,31.4533148 82.2465438,31.7413835 82.7964854,31.7413835 C83.1934134,31.7413835 83.5138346,31.4954596 83.5764168,31.2706871 L84.4469361,31.2706871 C84.168445,32.1277902 83.5764168,32.4932033 82.7615958,32.4932033 C81.6266665,32.4932033 80.9232418,31.7063417 80.9232418,30.5821634 C80.9232418,29.4931848 81.6684401,28.6641783 82.7615958,28.6641783 C83.9872694,28.6641783 84.5792976,29.703909 84.5096748,30.8209842 L81.912198,30.8209842 L81.912198,30.8209842 Z" id="Fill-25" fill="#0A0B09"></path>
                        <path d="M86.661253,29.4158403 C86.013683,29.4158403 85.7908902,29.9779294 85.7908902,30.5752182 C85.7908902,31.1442526 86.0484162,31.7413835 86.661253,31.7413835 C87.3158635,31.7413835 87.5108072,31.1652461 87.5108072,30.5681151 C87.5108072,29.9779294 87.3019389,29.4158403 86.661253,29.4158403 L86.661253,29.4158403 Z M87.5248882,31.9311142 L87.5108072,31.9311142 C87.2809739,32.3244661 86.8771618,32.4932033 86.4176515,32.4932033 C85.331067,32.4932033 84.801934,31.5516527 84.801934,30.5469638 C84.801934,29.5703714 85.3381075,28.6641783 86.3966865,28.6641783 C86.8214636,28.6641783 87.2393566,28.8468059 87.4690336,29.2051161 L87.461993,29.2051161 L87.4759176,29.2051161 L87.4759176,27.3783658 L88.4650303,27.3783658 L88.4650303,32.3948654 L87.5248882,32.3948654 L87.5248882,31.9311142 L87.5248882,31.9311142 Z" id="Fill-26" fill="#0A0B09"></path>
                        <polyline id="Fill-27" fill="#0A0B09" points="92.071646 28.3058682 90.5815624 28.3058682 90.5815624 27.3783658 94.6553547 27.3783658 94.6553547 28.3058682 93.1651146 28.3058682 93.1651146 32.3948654 92.071646 32.3948654 92.071646 28.3058682"></polyline>
                        <polyline id="Fill-28" fill="#0A0B09" points="95.086703 27.3783658 98.805341 27.3783658 98.805341 28.3058682 96.1800151 28.3058682 96.1800151 29.3807985 98.5895886 29.3807985 98.5895886 30.2379016 96.1800151 30.2379016 96.1800151 31.467363 98.8610392 31.467363 98.8610392 32.3948654 95.086703 32.3948654 95.086703 27.3783658"></polyline>
                        <path d="M100.413862,31.467363 L101.388737,31.467363 C102.022382,31.467363 102.628335,31.0740111 102.628335,29.9638812 C102.628335,28.9520891 102.280065,28.3058682 101.193637,28.3058682 L100.413862,28.3058682 L100.413862,31.467363 L100.413862,31.467363 Z M99.320393,27.3783658 L101.465244,27.3783658 C102.753656,27.3783658 103.721491,28.1934819 103.721491,29.858598 C103.721491,31.3128319 102.983489,32.3948654 101.465244,32.3948654 L99.320393,32.3948654 L99.320393,27.3783658 L99.320393,27.3783658 Z" id="Fill-29" fill="#0A0B09"></path>
                        <path d="M108.456465,30.1886537 C108.366033,29.6829155 108.150124,29.4158403 107.669649,29.4158403 C107.042888,29.4158403 106.861868,29.907688 106.847944,30.1886537 L108.456465,30.1886537 L108.456465,30.1886537 Z M106.847944,30.8209842 C106.875637,31.4533148 107.182133,31.7413835 107.732231,31.7413835 C108.129159,31.7413835 108.44958,31.4954596 108.512163,31.2706871 L109.382682,31.2706871 C109.104191,32.1277902 108.512163,32.4932033 107.697342,32.4932033 C106.562412,32.4932033 105.858988,31.7063417 105.858988,30.5821634 C105.858988,29.4931848 106.604186,28.6641783 107.697342,28.6641783 C108.923015,28.6641783 109.515043,29.703909 109.445421,30.8209842 L106.847944,30.8209842 L106.847944,30.8209842 Z" id="Fill-30" fill="#0A0B09"></path>
                        <polyline id="Fill-31" fill="#0A0B09" points="111.743285 32.3948654 110.642932 32.3948654 109.410375 28.7625162 110.447832 28.7625162 111.206955 31.2425905 111.220879 31.2425905 111.979846 28.7625162 112.961918 28.7625162 111.743285 32.3948654"></polyline>
                        <path d="M115.517308,30.1886537 C115.426877,29.6829155 115.210968,29.4158403 114.730493,29.4158403 C114.103731,29.4158403 113.922556,29.907688 113.908788,30.1886537 L115.517308,30.1886537 L115.517308,30.1886537 Z M113.908788,30.8209842 C113.93648,31.4533148 114.242977,31.7413835 114.793075,31.7413835 C115.190003,31.7413835 115.510424,31.4954596 115.573006,31.2706871 L116.443526,31.2706871 C116.164878,32.1277902 115.573006,32.4932033 114.758185,32.4932033 C113.6231,32.4932033 112.919831,31.7063417 112.919831,30.5821634 C112.919831,29.4931848 113.66503,28.6641783 114.758185,28.6641783 C115.983859,28.6641783 116.575731,29.703909 116.506108,30.8209842 L113.908788,30.8209842 L113.908788,30.8209842 Z" id="Fill-32" fill="#0A0B09"></path>
                        <path d="M116.951694,28.7625162 L117.891836,28.7625162 L117.891836,29.2682544 L117.912644,29.2682544 C118.163443,28.8608542 118.59526,28.6641783 119.012997,28.6641783 C120.064535,28.6641783 120.329258,29.2613092 120.329258,30.1605571 L120.329258,32.3948654 L119.340302,32.3948654 L119.340302,30.3431848 C119.340302,29.7460539 119.166167,29.4510399 118.706657,29.4510399 C118.170327,29.4510399 117.940493,29.7531569 117.940493,30.4909285 L117.940493,32.3948654 L116.951694,32.3948654 L116.951694,28.7625162" id="Fill-33" fill="#0A0B09"></path>
                        <path d="M122.194992,28.7625162 L122.919225,28.7625162 L122.919225,29.4298886 L122.194992,29.4298886 L122.194992,31.2285422 C122.194992,31.5658589 122.278696,31.6499907 122.612885,31.6499907 C122.717397,31.6499907 122.814869,31.6430455 122.919225,31.622052 L122.919225,32.4018106 C122.752287,32.4299071 122.536378,32.4370102 122.341278,32.4370102 C121.735482,32.4370102 121.206192,32.2965274 121.206192,31.5728041 L121.206192,29.4298886 L120.60728,29.4298886 L120.60728,28.7625162 L121.206192,28.7625162 L121.206192,27.6735376 L122.194992,27.6735376 L122.194992,28.7625162" id="Fill-34" fill="#0A0B09"></path>
                        <polyline id="Fill-35" fill="#DB352A" points="5.12110269 10.7822934 0.481566691 10.7822934 0.481566691 6.50135562 14.8565558 6.50135562 14.8565558 10.7822934 10.2185844 10.7822934 10.2185844 23.203974 5.12110269 23.203974 5.12110269 10.7822934"></polyline>
                        <polyline id="Fill-36" fill="#DB352A" points="15.6488473 6.50135562 29.6034401 6.50135562 29.6034401 10.7822934 20.7496146 10.7822934 20.7496146 12.863649 29.6034401 12.863649 29.6034401 16.8416806 20.7496146 16.8416806 20.7496146 18.9231941 29.6057869 18.9231941 29.6057869 23.203974 15.6488473 23.203974 15.6488473 6.50135562"></polyline>
                        <path d="M35.5623666,18.9231941 L37.5571762,18.9231941 C40.7346341,18.9231941 41.199151,16.3256825 41.199151,14.7566945 C41.199151,13.7060724 40.8727845,10.7822934 37.1857505,10.7822934 L35.5623666,10.7822934 L35.5623666,18.9231941 L35.5623666,18.9231941 Z M30.4619123,6.50135562 L38.8322898,6.50135562 C44.349855,6.50135562 46.2999182,10.6186072 46.2999182,14.8280409 C46.2999182,19.9526648 43.6101326,23.203974 37.8362931,23.203974 L30.4619123,23.203974 L30.4619123,6.50135562 L30.4619123,6.50135562 Z" id="Fill-37" fill="#DB352A"></path>
                        <polyline id="Fill-38" fill="#DB352A" points="53.6290834 16.767493 52.0731319 14.164299 50.555825 16.767493 46.8185687 16.767493 50.3665136 11.5039647 46.950148 6.46915506 50.6886558 6.46915506 52.0731319 8.95791086 53.4973478 6.46915506 57.2347604 6.46915506 53.81949 11.5039647 57.3672784 16.767493 53.6290834 16.767493"></polyline>
                        <text id="Amsterdam" font-family="Helvetica" font-size="22.9711243" font-weight="normal" letter-spacing="7.9999998e-05" fill="#0A0A08">
                            <tspan x="59.2786971" y="23.0183101">Amsterdam</tspan>
                        </text>
                    </g>
                </g>
            </g>
        </g>
    </g>
</svg>