<?xml version="1.0" encoding="UTF-8" standalone="no"?>
<svg width="25px" height="25px" viewBox="0 0 25 25" version="1.1" xmlns="http://www.w3.org/2000/svg" xmlns:xlink="http://www.w3.org/1999/xlink">
    <!-- Generator: sketchtool 3.8.1 (29687) - http://www.bohemiancoding.com/sketch -->
    <title>4174E35C-3D3F-489A-8043-90A2265CE66F</title>
    <desc>Created with sketchtool.</desc>
    <defs></defs>
    <g id="Symbols" stroke="none" stroke-width="1" fill="none" fill-rule="evenodd">
        <g id="m.Topbar" transform="translate(-26.000000, -24.000000)" fill="#333333">
            <g id="Topbar-white">
                <g id="Register" transform="translate(18.000000, 9.000000)">
                    <g id="key" transform="translate(8.000000, 15.000000)">
                        <g id="Shape">
                            <path d="M16.7013283,0 C12.5092979,0 9.11119545,3.47790477 9.11119545,7.76664754 C9.11119545,8.76466175 9.31537002,9.7090861 9.65237192,10.5851639 L0.431119545,20.0200874 C0.164705882,20.2934734 0,20.5528794 0,20.9699484 L0,23.2999426 C0,24.1309739 0.70512334,24.8532721 1.51802657,24.8532721 L3.79506641,24.8532721 C4.20189753,24.8532721 4.45920304,24.6862892 4.7256167,24.4152332 L5.81480076,23.2999426 L7.59316888,23.2999426 C8.43111954,23.2999426 9.11119545,22.604051 9.11119545,21.7466131 L9.11119545,20.1932836 L10.629222,20.1932836 C11.4671727,20.1932836 12.1472486,19.497392 12.1472486,18.6399541 L12.1472486,16.8194519 L13.945351,14.9779798 C14.802277,15.3235956 15.7244782,15.5332951 16.7013283,15.5332951 C20.8918406,15.5332951 24.2914611,12.0553903 24.2914611,7.76664754 C24.2914611,3.47790477 20.8918406,0 16.7013283,0 L16.7013283,0 Z M16.7013283,13.9799656 C15.5779886,13.9799656 14.5366224,13.6459997 13.6341556,13.1007811 L13.373055,13.3671771 L12.5191651,14.2409249 L11.0732448,15.721248 C10.7886148,16.0124972 10.628463,16.4070429 10.628463,16.8194519 L10.628463,18.6399541 L9.11043643,18.6399541 C8.27248577,18.6399541 7.59240987,19.3350691 7.59240987,20.1932836 L7.59240987,21.7466131 L5.81480076,21.7466131 C5.41252372,21.7466131 5.02618596,21.9104894 4.74155598,22.2017387 L3.66527514,23.3030493 L1.52030361,23.2999426 L1.51802657,21.0864481 L10.3719165,12.0429637 C10.3719165,12.0429637 10.3719165,12.0437403 10.3726755,12.044517 L11.487666,10.9035965 C10.9548387,9.98014209 10.628463,8.91533472 10.628463,7.76587088 C10.628463,4.33456599 13.3480076,1.55255284 16.7005693,1.55255284 C20.0531309,1.55255284 22.7726755,4.33456599 22.7726755,7.76587088 C22.7726755,11.1971758 20.054649,13.9799656 16.7013283,13.9799656 L16.7013283,13.9799656 Z"></path>
                            <path d="M21.1157495,6.39894091 C20.2648956,5.18579057 19.2288425,4.12719651 18.0379507,3.250342 C17.8444023,3.10665902 17.5939279,3.07093244 17.3685009,3.15170557 C16.3142315,3.53149464 15.5924099,4.26932616 15.2235294,5.3481135 C15.1954459,5.42888663 15.1817837,5.51276643 15.1817837,5.59586956 C15.1817837,5.75042584 15.2288425,5.9034288 15.3199241,6.03313181 C16.173814,7.24783549 17.2083491,8.30720621 18.3962049,9.18095406 C18.5905123,9.32386038 18.8394687,9.36036362 19.0648956,9.28036715 C20.1206831,8.90290808 20.8425047,8.16352323 21.2129032,7.08395923 C21.2409867,7.00318609 21.254649,6.9193063 21.254649,6.83620317 C21.2538899,6.68164688 21.2060721,6.52864393 21.1157495,6.39894091 L21.1157495,6.39894091 Z M18.8387097,8.55107895 C17.716888,7.72548431 16.740038,6.72591677 15.9392789,5.60518953 C16.2330171,4.74852831 16.7825427,4.18622303 17.5954459,3.88021711 C18.7180266,4.70736508 19.6933586,5.70460262 20.4918406,6.84008649 C20.1950664,7.6905344 19.6470588,8.24973302 18.8387097,8.55107895 L18.8387097,8.55107895 Z"></path>
                        </g>
                    </g>
                </g>
            </g>
        </g>
    </g>
</svg>